<?xml version="1.0" standalone="no"?>
<!DOCTYPE svg PUBLIC "-//W3C//DTD SVG 20010904//EN"
 "http://www.w3.org/TR/2001/REC-SVG-20010904/DTD/svg10.dtd">
<svg version="1.0" xmlns="http://www.w3.org/2000/svg"
 width="1024.000000pt" height="1024.000000pt" viewBox="0 0 1024.000000 1024.000000"
 preserveAspectRatio="xMidYMid meet">

<g transform="translate(0.000000,1024.000000) scale(0.100000,-0.100000)"
fill="#000000" stroke="none">
<path d="M4994 8989 c-115 -106 -283 -260 -373 -343 -90 -83 -177 -163 -192
-177 l-29 -26 0 -137 0 -137 -22 15 c-12 9 -85 75 -162 149 -78 73 -190 178
-251 234 -60 55 -121 112 -134 127 l-25 26 -43 -42 c-24 -23 -43 -45 -43 -49
0 -3 109 -110 243 -237 133 -126 286 -272 340 -324 l97 -93 0 -132 c0 -73 -3
-133 -6 -133 -6 0 -158 138 -319 290 -44 41 -169 158 -278 259 l-199 184 -39
-39 c-21 -21 -39 -44 -39 -50 0 -7 22 -32 49 -56 168 -149 813 -753 821 -768
12 -22 14 -240 3 -240 -8 1 -149 125 -402 353 l-131 118 -28 -21 c-34 -27
-496 -455 -617 -572 l-90 -87 47 -47 47 -47 33 25 c18 14 119 104 224 199 105
96 227 207 272 248 l82 73 0 -114 c0 -101 -2 -114 -19 -125 -11 -7 -75 -62
-143 -121 l-123 -109 3 -77 4 -76 26 19 c15 10 77 62 137 115 l110 96 8 -231
c5 -127 6 -246 3 -264 -6 -28 -30 -54 -146 -152 l-139 -118 0 -83 -1 -83 28
20 c15 11 77 63 137 116 l110 97 8 -89 c5 -48 5 -119 2 -158 l-7 -70 -66 -55
c-36 -30 -79 -67 -96 -81 l-30 -26 60 -55 c32 -30 77 -70 99 -90 l40 -36 -3
-93 c-2 -51 -4 -95 -6 -97 -4 -3 -164 137 -374 327 l-83 75 1 190 2 190 -64
61 c-35 33 -153 146 -263 250 -110 105 -249 238 -310 295 -60 57 -193 182
-295 279 -102 97 -250 236 -329 310 l-143 133 -44 -43 -45 -44 58 -55 c32 -30
150 -143 263 -250 113 -107 255 -242 315 -300 262 -253 391 -375 563 -534
l182 -169 0 -188 0 -187 152 -139 c181 -164 362 -325 548 -488 74 -64 173
-154 220 -198 l85 -81 3 830 3 829 -73 65 c-40 36 -97 88 -126 115 l-53 50 3
72 3 72 65 -56 c36 -30 88 -77 116 -104 l51 -48 32 50 c17 28 31 53 31 57 0 4
-68 67 -150 141 l-150 134 0 100 0 100 23 -20 c12 -11 97 -86 190 -167 l167
-147 0 -345 0 -345 75 62 c42 34 78 66 81 71 3 4 6 417 8 917 l3 909 38 33
c21 19 153 138 293 264 140 127 269 243 288 258 l34 29 2 -1559 c1 -1592 -2
-2855 -7 -2861 -2 -2 -12 5 -22 15 -20 20 -303 276 -598 542 l-190 171 -3
-138 -3 -137 54 -50 c29 -28 172 -156 317 -285 l263 -235 -73 -67 -73 -67 -91
88 c-50 48 -192 180 -315 292 -123 112 -285 260 -359 327 l-135 124 -41 -41
-40 -41 40 -37 c22 -21 81 -77 132 -124 l92 -86 0 -83 0 -82 -87 78 c-49 43
-113 102 -143 130 -30 28 -113 103 -183 168 l-128 118 -47 -43 c-148 -135
-650 -602 -837 -779 -49 -47 -144 -135 -210 -195 -170 -155 -282 -260 -620
-580 -110 -105 -283 -269 -385 -365 -102 -96 -232 -221 -290 -277 l-105 -102
42 -43 43 -42 27 25 c76 69 478 443 628 584 93 88 233 219 310 290 77 71 199
183 270 250 72 66 179 165 240 220 60 55 150 138 200 185 50 47 171 159 270
250 98 91 243 225 322 299 80 74 148 131 155 128 12 -5 202 -176 747 -672
l231 -210 -66 -63 -65 -63 -111 103 c-60 57 -248 230 -416 384 l-307 281 -25
-19 c-14 -11 -231 -216 -483 -456 -252 -240 -477 -454 -499 -474 -22 -20 -95
-90 -162 -155 -67 -65 -232 -224 -366 -353 -135 -129 -290 -278 -344 -332
l-100 -98 39 -40 38 -39 26 20 c30 23 195 178 486 454 255 242 828 782 1055
995 96 90 200 187 230 216 l55 53 185 -171 c380 -351 540 -502 540 -508 0 -4
-91 -90 -201 -191 -111 -101 -240 -220 -288 -264 l-86 -79 -5 405 -5 404 -77
74 -78 74 -136 -129 c-75 -71 -167 -158 -206 -194 l-70 -65 56 -54 55 -54 58
55 c32 31 94 87 138 127 l80 71 3 -156 c1 -85 1 -222 0 -304 l-3 -150 -118
111 c-67 63 -123 108 -130 105 -6 -3 -21 -12 -32 -21 -19 -13 -26 -9 -116 80
l-96 94 -43 -44 c-23 -23 -41 -47 -39 -53 5 -11 179 -177 407 -386 89 -82 162
-151 162 -153 0 -2 -28 -30 -62 -63 l-63 -59 -125 122 c-128 125 -328 317
-413 397 l-47 44 -40 -40 -39 -40 157 -155 c86 -85 216 -211 289 -281 l131
-127 -106 -97 c-141 -129 -712 -665 -712 -669 0 -1 32 -34 72 -73 l72 -70 190
178 c105 97 259 239 341 315 83 76 181 167 219 202 l68 64 52 -47 c105 -97
206 -196 206 -204 0 -4 -80 -81 -177 -171 -98 -90 -218 -203 -268 -250 -114
-109 -222 -209 -260 -242 l-30 -26 72 -72 72 -73 43 39 c113 102 802 738 870
803 l77 74 38 -30 c21 -17 63 -56 93 -86 l55 -57 -105 -96 c-102 -94 -204
-192 -530 -511 l-155 -151 34 -35 c19 -20 38 -36 41 -36 10 0 442 406 770 724
218 212 611 580 622 585 6 2 32 -18 59 -45 l49 -48 -52 -54 c-29 -30 -160
-156 -292 -280 l-238 -227 94 -90 c52 -49 143 -135 203 -190 61 -55 133 -121
160 -148 l50 -48 -35 -31 c-19 -17 -104 -96 -188 -176 l-153 -145 28 -29 c15
-17 49 -48 76 -70 l47 -40 118 108 c64 59 149 139 188 177 l71 69 89 -83 c49
-46 133 -125 186 -176 53 -51 101 -93 105 -93 5 0 41 30 81 66 l73 67 -28 30
c-15 16 -99 95 -186 174 -87 80 -157 148 -155 152 2 4 52 52 113 107 60 54
172 158 248 229 77 72 192 177 256 233 64 57 151 138 193 179 l77 76 86 -79
87 -79 -148 -142 -149 -142 -21 22 c-11 12 -35 35 -52 51 l-31 29 -43 -41 -43
-42 48 -48 c26 -26 47 -51 47 -56 0 -4 -33 -38 -72 -76 l-73 -69 37 -37 37
-37 79 71 79 71 200 -194 200 -194 42 43 42 43 -195 188 c-108 103 -196 191
-196 195 0 7 50 57 225 222 l70 67 125 -116 c69 -64 179 -166 245 -227 65 -61
173 -162 239 -223 66 -62 123 -113 126 -113 3 0 37 32 75 70 l70 71 -80 77
c-44 42 -143 136 -220 207 -77 72 -204 191 -282 264 -79 73 -143 136 -142 139
1 4 58 59 128 123 l127 117 60 -57 c33 -31 165 -153 294 -271 129 -118 286
-263 349 -322 l114 -108 79 72 80 72 -96 94 -96 94 0 134 c0 74 3 134 6 134 3
0 88 -78 187 -172 100 -95 212 -202 249 -237 l67 -64 40 34 c22 19 40 36 40
40 1 5 -223 227 -471 469 l-118 114 0 113 c0 62 2 113 5 113 3 0 54 -46 113
-103 59 -57 131 -125 160 -152 l53 -48 40 39 40 39 -285 280 -286 281 2 326 3
327 210 -197 c116 -108 401 -376 635 -596 234 -221 450 -424 480 -453 l55 -51
43 39 42 40 -22 23 c-54 54 -574 551 -813 776 -143 135 -346 326 -450 425
-243 229 -813 765 -882 828 l-53 49 -2 304 -3 303 -115 -101 c-63 -55 -137
-121 -165 -147 -27 -25 -97 -89 -155 -141 -58 -52 -125 -113 -150 -136 -25
-22 -101 -92 -169 -155 -68 -63 -163 -149 -211 -191 -108 -95 -281 -255 -297
-276 -11 -14 -15 -13 -35 4 -13 10 -25 20 -27 21 -2 1 39 41 90 90 52 48 138
130 192 182 l97 95 0 1098 0 1099 78 73 c42 41 103 95 134 120 l58 47 2 -1051
3 -1050 62 52 62 53 0 155 1 156 73 70 c69 67 119 112 442 391 77 67 235 205
350 308 l210 186 5 -921 5 -921 105 -94 105 -95 5 247 5 246 170 -159 c94 -87
283 -262 420 -389 138 -126 297 -275 355 -331 58 -55 201 -192 319 -303 l215
-202 40 41 41 41 -80 77 c-338 325 -415 402 -415 411 0 5 4 11 9 13 5 1 31 23
58 48 81 76 417 393 434 410 15 15 13 20 -22 60 l-38 44 -137 -130 c-75 -71
-146 -138 -158 -149 l-21 -20 -252 245 -253 245 0 276 0 276 211 199 c116 109
215 201 220 202 5 2 105 -88 222 -200 116 -113 230 -221 252 -241 l40 -37 40
41 40 41 -250 244 -250 245 133 127 134 127 -41 44 -41 44 -62 -58 c-35 -33
-195 -184 -355 -338 l-293 -278 0 72 c0 70 -1 73 -36 103 l-36 31 108 100 c60
55 288 269 508 475 219 206 422 396 450 422 l51 46 -44 46 -44 45 -146 -136
c-80 -75 -189 -177 -241 -227 -52 -49 -129 -121 -170 -160 -41 -39 -115 -109
-165 -156 -243 -231 -388 -365 -395 -365 -15 0 -260 230 -260 245 0 4 21 27
48 51 90 81 667 624 772 725 58 56 117 112 133 124 15 13 27 27 27 31 0 4 -16
26 -37 48 l-36 41 -46 -42 c-58 -52 -172 -160 -325 -305 -65 -62 -121 -113
-125 -112 -3 0 -71 63 -150 139 l-145 139 140 133 c76 73 166 158 198 189 l60
57 -41 42 -40 42 -114 -108 c-63 -59 -152 -145 -198 -190 l-85 -82 -220 211
c-122 117 -256 245 -298 286 l-77 74 -33 -28 c-18 -15 -97 -90 -175 -166
l-141 -138 37 -41 36 -41 135 124 134 125 142 -137 c78 -75 277 -266 442 -426
l300 -290 -71 -70 c-40 -39 -141 -135 -224 -214 l-153 -145 0 -82 0 -82 180
-168 180 -167 0 -394 0 -394 128 -123 c70 -67 204 -195 297 -285 94 -89 171
-168 173 -175 2 -11 -101 -116 -114 -116 -7 0 -144 126 -409 375 -88 83 -216
202 -285 265 -69 63 -162 150 -207 194 l-83 81 0 616 0 617 -85 80 -85 80 130
117 c72 64 130 119 130 123 -1 4 -16 25 -35 46 -28 32 -39 37 -54 30 -10 -5
-72 -60 -137 -121 l-118 -113 -28 27 -28 27 -22 -20 c-13 -11 -73 -65 -134
-120 -60 -54 -166 -149 -235 -210 -68 -61 -189 -170 -269 -242 l-145 -130 -3
72 c-2 39 0 94 3 123 6 52 7 53 128 160 318 282 847 764 847 772 0 9 -115 121
-124 121 -3 0 -29 -22 -58 -48 -151 -139 -363 -330 -389 -351 l-29 -24 0 588
0 587 152 146 c84 81 196 188 248 239 l95 92 -42 42 -41 42 -123 -119 c-235
-227 -285 -274 -290 -274 -2 0 -3 135 -1 300 2 175 -1 300 -6 300 -5 0 -59
-48 -121 -106 l-111 -106 -2 -318 -3 -319 -136 122 c-75 67 -198 176 -273 242
l-136 120 0 100 0 100 -152 140 c-84 77 -242 223 -352 325 -246 228 -293 270
-299 270 -2 0 -99 -86 -213 -191z m479 -658 c85 -59 87 -62 80 -143 -3 -40 -7
-75 -9 -77 -2 -2 -30 16 -63 40 l-60 44 0 83 c-1 45 2 82 5 82 3 0 24 -13 47
-29z m287 -188 l50 -37 0 -88 0 -89 -60 43 -60 42 0 67 c0 62 6 99 16 99 3 0
27 -17 54 -37z m484 -342 c121 -108 246 -221 278 -251 l58 -56 0 -512 0 -513
-52 -56 c-29 -30 -65 -64 -81 -75 l-27 -20 0 337 c1 311 0 339 -17 357 -10 12
-85 81 -166 156 l-148 135 -27 -20 c-15 -11 -33 -23 -39 -27 -10 -6 -13 32
-13 174 l0 181 38 -34 c49 -45 313 -277 342 -300 12 -10 23 -17 25 -15 3 3 7
98 6 129 -1 9 -93 101 -206 204 l-205 188 0 98 c0 53 -3 105 -7 115 -10 28 6
14 241 -195z m-753 141 l54 -38 3 -87 c1 -48 0 -87 -3 -87 -4 0 -33 21 -66 46
l-59 47 0 78 c0 44 4 79 8 79 5 0 33 -17 63 -38z m294 -185 c28 -24 29 -27 26
-98 -1 -41 -4 -76 -6 -78 -4 -4 -60 34 -92 62 -19 17 -23 31 -23 76 0 31 3 66
6 78 6 23 6 23 33 3 14 -10 39 -30 56 -43z m-292 -182 l57 -40 0 -82 0 -83
-27 18 c-16 9 -45 28 -65 42 l-38 25 0 83 c0 46 4 82 8 80 4 -1 33 -21 65 -43z
m12 -367 c22 -16 43 -35 46 -41 3 -7 4 -46 1 -89 l-4 -76 -64 46 -64 47 0 83
c0 94 -3 93 85 30z m312 -206 c3 -12 2 -52 -2 -88 l-7 -65 -31 24 c-18 13 -44
32 -59 43 -25 17 -27 25 -28 86 0 101 2 103 66 60 31 -21 57 -47 61 -60z
m-328 -152 c66 -44 72 -58 63 -148 l-7 -63 -62 43 -63 43 0 83 c0 45 2 82 6
82 3 0 31 -18 63 -40z m1071 -1928 l0 -99 -197 -184 c-109 -101 -265 -247
-348 -324 -259 -241 -275 -256 -290 -248 -7 5 -37 30 -65 57 l-53 50 35 30
c20 17 105 94 190 170 84 77 241 219 348 315 107 97 232 211 278 254 47 42 88
77 93 77 5 0 9 -44 9 -98z m-2130 -381 c58 -53 165 -150 238 -216 l133 -119
-43 -43 c-23 -24 -45 -43 -48 -43 -6 0 -122 103 -241 214 -36 34 -94 88 -130
121 l-64 60 0 81 0 81 25 -19 c14 -11 72 -63 130 -117z m2130 -144 l0 -272
-217 -204 c-199 -186 -271 -255 -535 -508 -47 -46 -88 -83 -92 -83 -4 0 -32
24 -63 53 l-55 54 258 244 c142 134 298 280 345 324 48 44 87 85 88 92 1 12
-67 73 -81 73 -5 0 -71 -60 -149 -132 -77 -73 -144 -134 -148 -136 -7 -2 -91
71 -91 80 0 3 84 84 188 180 103 96 268 250 366 341 98 92 181 167 182 167 2
0 4 -123 4 -273z m450 58 c96 -87 205 -188 243 -224 l67 -65 0 -192 0 -192
-157 -144 c-87 -78 -203 -185 -258 -235 -54 -51 -103 -93 -107 -93 -4 0 -8
302 -8 672 l0 671 23 -20 c12 -11 101 -91 197 -178z m-1465 -502 c105 -94 197
-178 204 -187 13 -16 7 -25 -64 -89 -44 -40 -102 -93 -129 -118 l-50 -46 -149
139 -148 139 -34 -28 c-19 -15 -86 -77 -149 -136 l-115 -109 -136 122 c-74 67
-135 125 -135 129 0 4 44 46 98 93 53 47 178 160 277 252 l179 166 81 -78 c44
-43 166 -155 270 -249z m1015 -319 l0 -326 -32 27 c-18 15 -100 88 -181 162
l-148 135 48 41 c26 23 106 97 178 164 71 68 131 123 133 123 1 0 2 -147 2
-326z m-1987 -81 c45 -43 104 -97 130 -121 26 -23 47 -46 46 -50 0 -4 -79 -79
-175 -167 -242 -222 -249 -229 -342 -317 l-83 -78 -132 121 c-73 66 -133 124
-135 129 -1 4 39 45 90 91 154 139 472 435 487 452 7 10 17 17 22 17 5 0 46
-35 92 -77z m712 -119 l80 -75 -78 -76 -79 -75 -29 28 -29 28 -43 -42 -42 -42
30 -25 30 -24 -40 -39 c-22 -21 -94 -90 -160 -153 -66 -62 -191 -182 -278
-266 -87 -84 -162 -153 -165 -153 -4 0 -47 38 -96 83 l-88 82 94 85 c186 168
664 606 733 672 39 37 72 68 75 67 3 0 41 -34 85 -75z m1868 -341 c-92 -89
-170 -162 -173 -163 -3 0 -36 31 -74 69 l-68 69 43 38 c23 22 131 121 238 221
l196 182 3 -127 3 -127 -168 -162z m-823 148 c185 -168 191 -174 173 -192 -10
-10 -69 -65 -132 -122 l-114 -105 -166 152 c-91 83 -195 178 -230 212 l-64 61
54 49 c168 155 194 179 197 186 4 9 22 -6 282 -241z m-610 -211 c129 -118 265
-242 303 -274 37 -33 66 -64 66 -70 -1 -6 -38 -46 -84 -88 l-82 -77 -74 72
c-41 40 -157 151 -259 247 -101 96 -212 201 -245 233 l-60 58 79 75 c77 74 79
75 99 57 12 -10 127 -115 257 -233z m1598 -295 l-3 -115 -124 118 -123 117 48
45 c27 24 83 76 124 114 l75 71 3 -118 c1 -64 1 -169 0 -232z m-2065 260 c26
-24 47 -47 47 -52 0 -5 -22 -30 -48 -56 l-48 -47 -53 54 -53 53 49 46 c26 26
50 46 53 46 3 0 26 -19 53 -44z m1567 -209 c0 -6 -57 -65 -126 -130 l-125
-119 -42 40 c-23 22 -57 53 -75 69 -18 15 -31 34 -30 41 2 7 59 64 127 127
l125 114 73 -66 c40 -36 73 -70 73 -76z m-2959 17 l130 -118 -71 -68 -72 -69
-111 108 c-148 142 -147 142 -146 151 1 12 117 113 129 113 6 0 69 -53 141
-117z m1792 -182 c97 -91 177 -169 177 -172 0 -4 -51 -53 -112 -110 -62 -57
-196 -180 -298 -274 -102 -94 -192 -176 -201 -183 -14 -10 -23 -6 -60 29 -24
23 -122 114 -218 203 l-173 161 83 75 c46 41 143 132 216 203 72 70 134 127
137 127 6 0 122 -107 259 -240 l88 -84 40 40 40 41 -172 166 -172 167 49 47
49 48 45 -39 c25 -22 125 -114 223 -205z"/>
<path d="M7100 4000 c0 -88 4 -160 8 -160 5 0 21 14 38 31 16 17 44 39 62 51
30 18 32 23 32 76 l0 57 -61 53 c-33 28 -65 52 -70 52 -5 0 -9 -70 -9 -160z"/>
<path d="M5885 9015 c-28 -27 -32 -63 -10 -104 38 -75 157 -43 157 43 0 79
-91 117 -147 61z"/>
<path d="M4122 8794 c-18 -12 -22 -25 -22 -65 0 -63 23 -89 80 -89 49 0 90 35
90 75 0 33 -24 81 -45 89 -30 11 -80 6 -103 -10z"/>
<path d="M6224 8660 c-50 -20 -70 -93 -38 -138 48 -70 164 -33 164 51 0 41
-17 67 -55 83 -39 16 -42 16 -71 4z"/>
<path d="M4989 8397 c-84 -65 -83 -63 -83 -148 -1 -43 1 -78 4 -76 3 1 27 18
52 37 l47 35 1 83 c0 45 -1 82 -2 82 -2 0 -10 -6 -19 -13z"/>
<path d="M4733 8272 l-53 -37 0 -113 0 -113 55 42 55 41 0 109 c0 60 -1 109
-2 109 -2 -1 -27 -18 -55 -38z"/>
<path d="M3341 8112 c-25 -20 -31 -73 -11 -97 28 -33 102 -10 111 35 5 28 -12
61 -38 71 -33 12 -37 12 -62 -9z"/>
<path d="M4951 8036 l-44 -33 -1 -82 c-1 -44 1 -81 4 -81 3 0 26 16 53 35 l47
35 0 80 c0 44 -3 80 -7 80 -5 0 -28 -16 -52 -34z"/>
<path d="M7172 7974 c-28 -19 -30 -74 -4 -97 63 -57 152 33 92 93 -24 24 -57
26 -88 4z"/>
<path d="M7663 7955 c-33 -14 -63 -59 -63 -95 0 -29 26 -76 52 -94 12 -9 37
-16 56 -16 65 0 111 42 112 102 0 52 -17 84 -55 103 -40 18 -60 18 -102 0z"/>
<path d="M4726 7893 l-46 -38 0 -87 c0 -49 2 -88 5 -88 3 0 28 17 55 37 l50
37 0 88 c0 48 -4 88 -9 88 -4 0 -29 -17 -55 -37z"/>
<path d="M4958 7742 l-48 -36 0 -94 0 -93 46 33 c26 18 48 38 51 44 2 6 3 49
1 97 l-3 86 -47 -37z"/>
<path d="M3054 7730 c-34 -13 -54 -50 -54 -98 0 -118 168 -142 198 -29 24 91
-57 162 -144 127z"/>
<path d="M4731 7583 l-51 -38 0 -83 0 -83 55 42 55 41 0 79 c0 44 -2 79 -4 79
-2 0 -26 -17 -55 -37z"/>
<path d="M4953 7417 l-42 -32 -1 -93 c0 -52 3 -92 8 -90 4 2 26 17 49 33 l42
30 1 93 c0 50 -3 92 -7 92 -5 0 -27 -15 -50 -33z"/>
<path d="M2680 7375 l-34 -35 69 -70 c38 -39 74 -70 80 -70 5 0 25 14 44 31
l33 31 -43 45 c-58 60 -103 102 -110 103 -3 0 -20 -16 -39 -35z"/>
<path d="M4728 7222 l-48 -36 0 -89 0 -88 46 36 c26 19 51 35 55 35 5 0 9 41
9 90 0 50 -3 90 -7 89 -5 0 -29 -17 -55 -37z"/>
<path d="M4964 7060 c-22 -16 -43 -33 -49 -38 -6 -5 -9 -45 -7 -95 l3 -86 50
36 49 37 0 88 c0 48 -2 88 -4 88 -2 0 -21 -13 -42 -30z"/>
<path d="M4728 6893 l-48 -35 0 -84 c0 -46 3 -84 6 -84 4 0 28 16 55 36 l49
36 0 84 c0 46 -3 84 -7 83 -5 0 -29 -16 -55 -36z"/>
<path d="M2225 6832 c-39 -35 -121 -115 -182 -176 l-113 -111 -82 80 c-46 44
-96 92 -113 107 l-30 27 -37 -34 c-21 -18 -38 -37 -38 -42 0 -5 47 -56 105
-113 58 -56 105 -106 105 -110 0 -4 -30 -35 -67 -70 -38 -35 -157 -151 -265
-258 l-197 -195 32 -38 c17 -20 35 -38 39 -38 7 -1 161 141 395 365 l158 152
75 -74 75 -74 -40 -38 c-22 -22 -186 -178 -365 -348 -179 -169 -370 -352 -424
-405 l-99 -96 39 -36 c21 -20 41 -37 44 -37 7 0 506 466 738 688 l190 183 129
-122 c70 -67 136 -129 146 -139 17 -16 11 -23 -127 -151 l-145 -134 -1 -364 0
-364 -121 -116 c-67 -64 -125 -116 -130 -116 -5 0 -93 81 -196 181 -104 99
-213 204 -243 232 l-55 51 -40 -40 -40 -40 243 -237 243 -237 -53 -46 c-72
-63 -369 -349 -415 -399 l-36 -41 36 -36 36 -37 48 44 c26 24 196 181 376 349
181 168 332 308 338 309 5 2 9 -99 9 -257 l0 -261 -97 -92 c-54 -51 -159 -152
-233 -225 l-135 -133 38 -35 c21 -19 41 -35 44 -35 6 0 208 187 363 336 52 50
116 110 143 134 l47 43 0 664 c0 427 4 671 10 683 6 10 67 69 138 131 70 61
203 180 295 263 93 83 173 152 178 154 5 2 9 -277 9 -659 0 -364 2 -664 4
-667 3 -2 42 32 88 75 88 85 410 380 518 475 l65 58 -84 77 c-47 43 -157 143
-245 224 l-161 145 -3 201 -2 202 -65 62 c-36 34 -73 68 -83 75 -16 11 -41 -8
-233 -186 l-214 -198 -125 121 c-282 274 -410 401 -409 406 0 3 81 82 180 175
l178 169 -19 27 c-11 15 -30 34 -43 43 -22 14 -25 12 -92 -51z"/>
<path d="M3613 6811 l-63 -52 0 -70 0 -71 33 27 c104 88 98 79 95 152 l-3 66
-62 -52z"/>
<path d="M4958 6727 l-47 -32 -1 -98 0 -97 50 37 50 37 0 93 c0 51 -1 93 -2
93 -2 0 -24 -15 -50 -33z"/>
<path d="M4726 6535 l-46 -36 0 -79 c0 -44 3 -80 8 -80 4 1 23 14 42 30 19 17
40 30 47 30 10 0 13 22 13 85 0 47 -4 85 -9 85 -4 0 -29 -16 -55 -35z"/>
<path d="M4953 6387 c-23 -17 -44 -36 -45 -42 -2 -5 -1 -45 2 -88 l5 -78 48
37 47 37 0 83 c0 46 -3 84 -7 84 -5 0 -27 -15 -50 -33z"/>
<path d="M4498 6295 l-47 -34 -3 -91 c-2 -49 -1 -90 0 -90 2 0 22 16 45 35 22
19 44 35 48 35 4 0 9 41 11 90 2 50 1 90 -2 90 -3 0 -26 -16 -52 -35z"/>
<path d="M4728 6223 l-48 -37 0 -89 0 -88 55 42 55 41 0 84 c0 46 -3 84 -7 84
-5 0 -29 -17 -55 -37z"/>
<path d="M7173 6045 c-35 -26 -64 -52 -64 -58 -4 -35 -3 -157 1 -157 3 0 27
18 54 40 27 23 55 44 63 48 10 6 13 28 11 91 l-3 82 -62 -46z"/>
<path d="M4520 6008 c-79 -62 -75 -56 -72 -151 l3 -87 49 37 48 38 4 88 c1 49
1 90 -2 92 -3 2 -16 -6 -30 -17z"/>
<path d="M4960 5984 c-25 -20 -48 -41 -51 -47 -4 -7 -4 -42 0 -79 l6 -66 48
42 48 41 -3 72 -3 73 -45 -36z"/>
<path d="M4733 5853 l-53 -37 0 -78 0 -79 55 42 55 41 0 74 c0 41 -1 74 -2 74
-2 0 -27 -17 -55 -37z"/>
<path d="M6728 5724 c-42 -36 -43 -37 -48 -113 -3 -42 -5 -78 -3 -80 1 -2 27
19 57 45 l56 49 0 68 c0 37 -4 67 -9 67 -5 0 -29 -16 -53 -36z"/>
<path d="M7173 5672 l-63 -47 0 -82 0 -83 48 36 c87 65 82 56 82 144 0 44 -1
80 -2 79 -2 0 -31 -22 -65 -47z"/>
<path d="M2775 5669 l-45 -41 3 -67 2 -66 47 35 48 35 0 73 c0 39 -2 72 -5 72
-3 0 -26 -18 -50 -41z"/>
<path d="M7681 5618 l0 -73 107 -97 107 -97 3 66 3 66 -63 64 c-35 36 -84 83
-110 105 l-48 40 1 -74z"/>
<path d="M4958 5642 l-48 -36 0 -83 0 -83 50 37 50 37 0 83 c0 46 -1 83 -2 82
-2 0 -24 -17 -50 -37z"/>
<path d="M4488 5565 c-32 -25 -58 -48 -58 -52 0 -14 55 -100 85 -134 l33 -37
6 37 c8 52 7 231 -1 231 -5 0 -34 -20 -65 -45z"/>
<path d="M6463 5498 l-73 -61 0 -69 0 -69 75 62 75 62 0 68 c0 38 -1 69 -2 69
-2 0 -36 -28 -75 -62z"/>
<path d="M2508 5490 l-48 -42 0 -79 c0 -43 2 -79 5 -79 3 0 13 8 23 18 9 9 30
27 45 39 27 21 28 24 25 103 l-3 82 -47 -42z"/>
<path d="M4727 5498 l-47 -33 0 -89 0 -88 23 16 c12 9 37 26 54 39 32 22 33
23 33 105 0 45 -4 82 -8 82 -4 0 -29 -15 -55 -32z"/>
<path d="M2777 5357 l-48 -42 3 -76 2 -75 48 35 48 36 0 83 c0 45 -1 82 -2 82
-2 0 -25 -19 -51 -43z"/>
<path d="M7168 5277 l-57 -42 0 -78 -1 -77 65 51 65 51 0 69 c0 38 -3 69 -7
68 -5 0 -34 -19 -65 -42z"/>
<path d="M4953 5257 l-42 -32 -1 -88 0 -89 48 35 47 35 3 86 c1 47 -1 86 -5
85 -4 0 -27 -15 -50 -32z"/>
<path d="M2507 5168 l-48 -43 3 -82 3 -82 48 42 48 42 -3 83 -3 83 -48 -43z"/>
<path d="M7800 5107 l0 -87 47 -45 c26 -25 48 -45 50 -45 2 0 3 38 3 84 0 90
0 91 -67 151 l-33 29 0 -87z"/>
<path d="M8565 5108 c-83 -75 -115 -109 -115 -126 0 -5 43 -49 95 -97 l95 -87
47 40 c27 22 72 65 100 94 l53 54 -98 97 -97 97 -80 -72z"/>
<path d="M2773 5017 l-42 -32 0 -82 c1 -46 3 -83 5 -83 3 0 25 15 49 33 l44
32 1 83 c0 45 -3 82 -7 82 -5 0 -27 -15 -50 -33z"/>
<path d="M7164 4871 c-91 -73 -91 -88 -8 -156 69 -57 78 -46 82 94 1 61 -1
111 -5 111 -4 -1 -35 -23 -69 -49z"/>
<path d="M2508 4821 l-48 -35 0 -79 0 -78 28 20 c77 58 73 50 70 132 l-3 76
-47 -36z"/>
<path d="M2773 4688 c-41 -42 -42 -45 -40 -105 1 -35 3 -63 5 -63 2 0 24 16
48 36 l44 36 0 69 c0 38 -4 69 -8 69 -4 0 -27 -19 -49 -42z"/>
<path d="M2507 4475 l-48 -42 3 -85 3 -86 48 43 48 42 -3 85 -3 86 -48 -43z"/>
<path d="M7800 4239 l0 -85 50 -48 50 -48 0 82 0 81 -50 52 -50 52 0 -86z"/>
<path d="M8035 4060 l-38 -39 36 -40 c20 -23 198 -192 394 -378 197 -185 401
-378 453 -428 52 -50 134 -128 181 -173 47 -45 90 -82 95 -82 6 0 27 17 48 39
l37 38 -303 289 c-167 158 -343 327 -393 374 -101 97 -420 396 -451 422 -20
17 -22 16 -59 -22z"/>
</g>
</svg>
